<svg xmlns="http://www.w3.org/2000/svg" viewBox="0 0 500 400" width="500" height="400">
  <rect width="500" height="400" fill="#1e293b" rx="12"/>
  <text x="250" y="30" text-anchor="middle" fill="#94a3b8" font-size="13" font-family="monospace">Vault Directory Structure</text>
  <!-- Root -->
  <rect x="170" y="55" width="160" height="36" rx="6" fill="#f59e0b"/>
  <text x="250" y="78" text-anchor="middle" fill="#1e293b" font-size="12" font-family="monospace" font-weight="bold">my-vault/</text>
  <line x1="250" y1="91" x2="250" y2="105" stroke="#64748b" stroke-width="1.5"/>
  <!-- Level 1 -->
  <line x1="130" y1="105" x2="370" y2="105" stroke="#475569" stroke-width="1"/>
  <line x1="130" y1="105" x2="130" y2="120" stroke="#64748b" stroke-width="1.5"/>
  <rect x="50" y="122" width="160" height="34" rx="6" fill="#3b82f6"/>
  <text x="130" y="144" text-anchor="middle" fill="#fff" font-size="11" font-family="monospace">notes/</text>
  <line x1="250" y1="105" x2="250" y2="120" stroke="#64748b" stroke-width="1.5"/>
  <rect x="170" y="122" width="160" height="34" rx="6" fill="#10b981"/>
  <text x="250" y="144" text-anchor="middle" fill="#fff" font-size="11" font-family="monospace">assets/</text>
  <line x1="370" y1="105" x2="370" y2="120" stroke="#64748b" stroke-width="1.5"/>
  <rect x="290" y="122" width="160" height="34" rx="6" fill="#8b5cf6"/>
  <text x="370" y="144" text-anchor="middle" fill="#fff" font-size="11" font-family="monospace">code/</text>
  <!-- Level 2 - notes -->
  <line x1="130" y1="156" x2="130" y2="170" stroke="#64748b" stroke-width="1.5"/>
  <line x1="90" y1="170" x2="170" y2="170" stroke="#475569" stroke-width="1"/>
  <line x1="90" y1="170" x2="90" y2="185" stroke="#64748b" stroke-width="1.5"/>
  <text x="90" y="200" fill="#94a3b8" font-size="10" font-family="monospace">getting-started.md</text>
  <line x1="130" y1="170" x2="130" y2="185" stroke="#64748b" stroke-width="1.5"/>
  <text x="130" y="200" fill="#94a3b8" font-size="10" font-family="monospace">todo.md</text>
  <line x1="170" y1="170" x2="170" y2="185" stroke="#64748b" stroke-width="1.5"/>
  <text x="170" y="200" fill="#94a3b8" font-size="10" font-family="monospace">cheatsheet.md</text>
  <!-- Level 2 - assets -->
  <line x1="250" y1="156" x2="250" y2="170" stroke="#64748b" stroke-width="1.5"/>
  <line x1="210" y1="170" x2="290" y2="170" stroke="#475569" stroke-width="1"/>
  <line x1="210" y1="170" x2="210" y2="185" stroke="#64748b" stroke-width="1.5"/>
  <text x="210" y="200" fill="#94a3b8" font-size="10" font-family="monospace">diagram.svg</text>
  <line x1="250" y1="170" x2="250" y2="185" stroke="#64748b" stroke-width="1.5"/>
  <text x="250" y="200" fill="#94a3b8" font-size="10" font-family="monospace">logo.png</text>
  <line x1="290" y1="170" x2="290" y2="185" stroke="#64748b" stroke-width="1.5"/>
  <text x="290" y="200" fill="#94a3b8" font-size="10" font-family="monospace">screenshot.jpg</text>
  <!-- Level 2 - code -->
  <line x1="370" y1="156" x2="370" y2="170" stroke="#64748b" stroke-width="1.5"/>
  <line x1="330" y1="170" x2="410" y2="170" stroke="#475569" stroke-width="1"/>
  <line x1="330" y1="170" x2="330" y2="185" stroke="#64748b" stroke-width="1.5"/>
  <text x="330" y="200" fill="#94a3b8" font-size="10" font-family="monospace">hello.py</text>
  <line x1="370" y1="170" x2="370" y2="185" stroke="#64748b" stroke-width="1.5"/>
  <text x="370" y="200" fill="#94a3b8" font-size="10" font-family="monospace">hello.go</text>
  <line x1="410" y1="170" x2="410" y2="185" stroke="#64748b" stroke-width="1.5"/>
  <text x="410" y="200" fill="#94a3b8" font-size="10" font-family="monospace">hello.rs</text>
  <!-- Config section -->
  <rect x="120" y="240" width="260" height="28" rx="6" fill="#1e293b" stroke="#475569" stroke-width="1"/>
  <text x="250" y="259" text-anchor="middle" fill="#64748b" font-size="10" font-family="monospace">.thinkingkity/  (hidden)</text>
  <line x1="250" y1="268" x2="250" y2="282" stroke="#475569" stroke-width="1"/>
  <line x1="130" y1="282" x2="370" y2="282" stroke="#475569" stroke-width="1"/>
  <line x1="130" y1="282" x2="130" y2="297" stroke="#475569" stroke-width="1"/>
  <text x="130" y="312" fill="#64748b" font-size="10" font-family="monospace">config.json</text>
  <line x1="250" y1="282" x2="250" y2="297" stroke="#475569" stroke-width="1"/>
  <text x="250" y="312" fill="#64748b" font-size="10" font-family="monospace">sessions/</text>
  <line x1="370" y1="282" x2="370" y2="297" stroke="#475569" stroke-width="1"/>
  <text x="370" y="312" fill="#64748b" font-size="10" font-family="monospace">skill/</text>
  <!-- Legend -->
  <rect x="80" y="345" width="10" height="10" rx="2" fill="#f59e0b"/>
  <text x="96" y="354" fill="#94a3b8" font-size="9" font-family="monospace">Dir</text>
  <rect x="140" y="345" width="10" height="10" rx="2" fill="#64748b"/>
  <text x="156" y="354" fill="#94a3b8" font-size="9" font-family="monospace">File</text>
</svg>
